<svg width="19" height="19" viewBox="0 0 19 19" fill="none" xmlns="http://www.w3.org/2000/svg">
<path d="M17.8334 6.498L16.5338 2.16495C16.3453 1.53423 15.9827 0.985572 15.4975 0.596925C15.0123 0.208278 14.4292 -0.000589217 13.831 1.24848e-06H5.16895C4.57082 -0.000589217 3.98773 0.208278 3.50254 0.596925C3.01735 0.985572 2.65473 1.53423 2.4662 2.16495L1.1666 6.498C0.821382 6.65895 0.526563 6.92947 0.319053 7.2757C0.111542 7.62192 0.000559635 8.02847 0 8.44444V13.7222C0 14.5171 0.40185 15.2021 0.98705 15.5621C0.9747 15.6317 0.95 15.6951 0.95 15.7679V17.9444C0.95 18.2244 1.05009 18.4929 1.22825 18.6908C1.40641 18.8888 1.64804 19 1.9 19H2.85C3.10196 19 3.34359 18.8888 3.52175 18.6908C3.69991 18.4929 3.8 18.2244 3.8 17.9444V15.8333H15.2V17.9444C15.2 18.2244 15.3001 18.4929 15.4782 18.6908C15.6564 18.8888 15.898 19 16.15 19H17.1C17.352 19 17.5936 18.8888 17.7718 18.6908C17.9499 18.4929 18.05 18.2244 18.05 17.9444V15.7679C18.05 15.6951 18.0253 15.6307 18.013 15.5621C18.3107 15.3817 18.5594 15.1158 18.733 14.7922C18.9066 14.4685 18.9988 14.099 19 13.7222V8.44444C19 7.56939 18.5174 6.81783 17.8334 6.498ZM1.9 13.7222V8.44444H17.1L17.1019 13.7222H1.9ZM5.16895 2.11111H13.8301C14.2396 2.11111 14.6024 2.40033 14.7316 2.83311L15.7824 6.33333H3.21765L4.2674 2.83311C4.33043 2.62284 4.45143 2.43994 4.61325 2.31036C4.77506 2.18077 4.96948 2.11106 5.16895 2.11111Z" fill="#989292"/>
</svg>
