<svg width="16" height="20" viewBox="0 0 16 20" fill="none" xmlns="http://www.w3.org/2000/svg">
<path d="M6.59509 10.4081H4.43812V0.705325H5.7708C5.94069 1.78283 6.87558 2.60951 8.00005 2.60951C9.12453 2.60951 10.0594 1.78283 10.2293 0.705325H11.5619V6.10581C11.5619 6.30057 11.7198 6.45847 11.9146 6.45847C12.1093 6.45847 12.2672 6.30057 12.2672 6.10581V5.15517L13.0262 5.53464C13.0766 5.55984 13.1304 5.57188 13.1837 5.57188C13.2953 5.57188 13.404 5.51893 13.4721 5.42254L15.1648 3.02457C15.2708 2.87439 15.2436 2.66796 15.1024 2.55027L12.1416 0.0829932C12.0803 0.0312694 12.0011 0 11.9146 0H4.08545C3.99879 0 3.91956 0.0313634 3.85815 0.0832283L0.897668 2.55027C0.756462 2.66796 0.729283 2.87439 0.835317 3.02457L2.52805 5.42254C2.59609 5.51888 2.70485 5.57188 2.81639 5.57188C2.86961 5.57188 2.9235 5.55979 2.97391 5.53464L3.73284 5.15517V10.7607C3.73284 10.9555 3.89074 11.1134 4.0855 11.1134H6.59514C6.7899 11.1134 6.9478 10.9555 6.9478 10.7607C6.9478 10.566 6.78986 10.4081 6.59509 10.4081ZM13.0705 4.76823L12.2672 4.36657V1.10581L14.4008 2.88374L13.0705 4.76823ZM8.00005 1.90419C7.26581 1.90419 6.6495 1.39142 6.48929 0.705325H9.51081C9.35061 1.39146 8.7343 1.90419 8.00005 1.90419ZM2.92947 4.76823L1.59923 2.88374L3.73279 1.10581V4.36657L2.92947 4.76823Z" fill="#989292"/>
<path d="M14.8193 6.86812H7.72858C7.53381 6.86812 7.37592 7.02602 7.37592 7.22078V19.6474C7.37592 19.8421 7.53381 20 7.72858 20H10.4441C10.6313 20 10.7859 19.8539 10.7962 19.6669L11.2739 11.0739L11.7515 19.6669C11.7619 19.8538 11.9165 20 12.1036 20H14.8192C15.0139 20 15.1718 19.8421 15.1718 19.6474V7.22078C15.1719 7.02597 15.014 6.86812 14.8193 6.86812ZM14.4666 8.36271H13.3545V7.57345H14.4666V8.36271ZM9.89863 8.36271V7.57345H12.6492V8.36271H9.89863ZM9.1933 7.57345V8.36271H8.08124V7.57345H9.1933ZM12.4373 19.2947L11.9579 10.6711C11.9475 10.4842 11.793 10.338 11.6058 10.338H10.942C10.7549 10.338 10.6003 10.4842 10.5899 10.6711L10.1106 19.2947H8.08129V9.06803H14.4666V19.2947H12.4373Z" fill="#989292"/>
</svg>
