<svg width="24" height="24" viewBox="0 0 24 24" fill="none" xmlns="http://www.w3.org/2000/svg">
<path fill-rule="evenodd" clip-rule="evenodd" d="M12 24C18.6274 24 24 18.6274 24 12C24 5.37258 18.6274 0 12 0C5.37258 0 0 5.37258 0 12C0 18.6274 5.37258 24 12 24ZM11.1601 17.1C11.1601 17.597 11.563 18 12.06 18C12.5572 18 12.96 17.597 12.96 17.1V12.96H17.1C17.597 12.96 18 12.557 18 12.06C18 11.5629 17.597 11.16 17.1 11.16H12.96V6.9C12.96 6.40295 12.5572 6 12.06 6C11.563 6 11.1601 6.40295 11.1601 6.9V11.16H6.9C6.40295 11.16 6 11.5629 6 12.06C6 12.557 6.40295 12.96 6.9 12.96H11.1601V17.1Z" fill="#3288DF"/>
</svg>
