<svg width="14" height="20" viewBox="0 0 14 20" fill="none" xmlns="http://www.w3.org/2000/svg">
<path d="M10.939 0.0855522C11.0613 0.156475 11.156 0.26679 11.2075 0.398474C11.2591 0.530159 11.2644 0.675429 11.2227 0.810552L8.9715 8.12555H13.1252C13.2473 8.1255 13.3667 8.1612 13.4687 8.22824C13.5708 8.29528 13.6509 8.39073 13.6993 8.50279C13.7477 8.61486 13.7622 8.73865 13.741 8.85887C13.7199 8.97909 13.664 9.09049 13.5802 9.1793L3.58025 19.8043C3.48349 19.9072 3.35473 19.9743 3.21497 19.9946C3.0752 20.015 2.93266 19.9874 2.81059 19.9163C2.68851 19.8453 2.5941 19.735 2.54274 19.6034C2.49138 19.4718 2.48609 19.3268 2.52775 19.1918L4.779 11.8756H0.625249C0.50318 11.8756 0.383769 11.8399 0.281757 11.7729C0.179744 11.7058 0.0995956 11.6104 0.0512057 11.4983C0.00281573 11.3862 -0.0116974 11.2625 0.0094577 11.1422C0.0306128 11.022 0.08651 10.9106 0.170249 10.8218L10.1702 0.196802C10.2669 0.0940511 10.3954 0.0270129 10.535 0.00658786C10.6746 -0.0138372 10.817 0.013552 10.939 0.0843022V0.0855522ZM2.0715 10.6256H5.62525C5.72306 10.6255 5.81951 10.6485 5.90684 10.6925C5.99417 10.7366 6.06994 10.8005 6.12806 10.8792C6.18618 10.9578 6.22503 11.049 6.24147 11.1455C6.25792 11.2419 6.2515 11.3408 6.22275 11.4343L4.51275 16.9881L11.6777 9.37555H8.12525C8.02744 9.37557 7.93099 9.35263 7.84366 9.30859C7.75633 9.26454 7.68056 9.20061 7.62244 9.12194C7.56432 9.04327 7.52547 8.95206 7.50902 8.85564C7.49258 8.75922 7.49899 8.66029 7.52775 8.5668L9.23775 3.01305L2.0715 10.6256Z" fill="#989292"/>
</svg>
