<svg width="17" height="17" viewBox="0 0 17 17" fill="none" xmlns="http://www.w3.org/2000/svg">
<path d="M11.3367 8.51154e-06C10.8313 0.000484512 10.3644 0.324445 10.1117 0.850009H0.717999C0.462697 0.845674 0.225235 1.00673 0.0965292 1.2715C-0.0321764 1.53627 -0.0321764 1.86374 0.0965292 2.12851C0.225235 2.39329 0.462697 2.55434 0.717999 2.55H10.113C10.3655 3.07505 10.8318 3.39893 11.3367 3.4C12.1186 3.4 12.7525 2.63888 12.7525 1.7C12.7525 0.761115 12.1186 8.51154e-06 11.3367 8.51154e-06ZM14.0688 0.850009C14.1275 1.12286 14.1683 1.40506 14.1683 1.70001C14.1683 1.99496 14.1275 2.27716 14.0688 2.55001H16.2921C16.6831 2.55001 17 2.16945 17 1.70001C17 1.23057 16.6831 0.850009 16.2921 0.850009H14.0688ZM4.25756 6.80001C3.75263 6.80108 3.28639 7.12495 3.03392 7.65001H0.717999C0.462697 7.64567 0.225235 7.80673 0.0965292 8.0715C-0.0321764 8.33627 -0.0321764 8.66374 0.0965292 8.92851C0.225235 9.19328 0.462697 9.35433 0.717999 9.35H3.03254C3.28525 9.87556 3.75213 10.1995 4.25756 10.2C5.0395 10.2 5.67339 9.43888 5.67339 8.5C5.67339 7.56112 5.0395 6.80001 4.25756 6.80001ZM6.98966 7.65001C7.04842 7.92286 7.08922 8.20506 7.08922 8.50001C7.08922 8.79496 7.04843 9.07716 6.98967 9.35001H16.2921C16.6831 9.35001 17 8.96945 17 8.50001C17 8.03057 16.6831 7.65001 16.2921 7.65001H6.98966ZM8.50504 13.6C7.99961 13.6005 7.53273 13.9244 7.28001 14.45H0.717999C0.462697 14.4457 0.225235 14.6067 0.0965292 14.8715C-0.0321764 15.1363 -0.0321764 15.4637 0.0965292 15.7285C0.225235 15.9933 0.462697 16.1543 0.717999 16.15H7.28139C7.53386 16.6751 8.0001 16.9989 8.50504 17C9.28697 17 9.92086 16.2389 9.92086 15.3C9.92086 14.3611 9.28697 13.6 8.50504 13.6ZM11.2371 14.45C11.2959 14.7229 11.3367 15.0051 11.3367 15.3C11.3367 15.595 11.2959 15.8772 11.2371 16.15H16.2921C16.6831 16.15 17 15.7694 17 15.3C17 14.8306 16.6831 14.45 16.2921 14.45H11.2371Z" fill="#989292"/>
</svg>
