<svg width="16" height="16" viewBox="0 0 16 16" fill="none" xmlns="http://www.w3.org/2000/svg">
<path d="M8 1C8.59122 1 9.15822 1.21071 9.57627 1.58579C9.99432 1.96086 10.2292 2.46957 10.2292 3V5H5.77082V3C5.77082 2.46957 6.00568 1.96086 6.42373 1.58579C6.84178 1.21071 7.40879 1 8 1ZM11.3438 5V3C11.3438 2.20435 10.9915 1.44129 10.3644 0.87868C9.73732 0.31607 8.88682 0 8 0C7.11318 0 6.26268 0.31607 5.6356 0.87868C5.00852 1.44129 4.65623 2.20435 4.65623 3V5H2.82831C2.42803 5.00008 2.04107 5.129 1.73775 5.36334C1.43442 5.59767 1.23488 5.92186 1.17537 6.277L0.0306866 13.13C-0.0286232 13.4856 -0.00174846 13.8485 0.109477 14.1939C0.220703 14.5393 0.413663 14.8591 0.675193 15.1315C0.936723 15.404 1.26067 15.6226 1.62493 15.7724C1.9892 15.9223 2.38521 15.9999 2.78595 16H13.2129C13.6138 16.0001 14.0099 15.9226 14.3743 15.7728C14.7387 15.6229 15.0628 15.4044 15.3244 15.1319C15.5861 14.8595 15.7792 14.5396 15.8904 14.1941C16.0017 13.8486 16.0286 13.4857 15.9693 13.13L14.8235 6.277C14.764 5.92204 14.5647 5.59798 14.2616 5.36366C13.9585 5.12935 13.5718 5.00032 13.1717 5H11.3438ZM10.2292 6V7.5C10.2292 7.63261 10.2879 7.75979 10.3924 7.85355C10.4969 7.94732 10.6387 8 10.7865 8C10.9343 8 11.076 7.94732 11.1805 7.85355C11.2851 7.75979 11.3438 7.63261 11.3438 7.5V6H13.1706C13.304 6.00012 13.4329 6.04318 13.534 6.12135C13.635 6.19952 13.7014 6.30762 13.7212 6.426L14.867 13.277C14.9027 13.4904 14.8868 13.7082 14.8201 13.9156C14.7535 14.1229 14.6377 14.315 14.4808 14.4785C14.3239 14.6421 14.1295 14.7733 13.9109 14.8633C13.6923 14.9533 13.4546 15 13.2141 15H2.78595C2.54542 15 2.30772 14.9533 2.0891 14.8633C1.87048 14.7733 1.67608 14.6421 1.51917 14.4785C1.36225 14.315 1.24653 14.1229 1.17988 13.9156C1.11324 13.7082 1.09726 13.4904 1.13302 13.277L2.27881 6.426C2.29853 6.30779 2.3648 6.19982 2.4656 6.12167C2.56641 6.04352 2.69508 6.00036 2.82831 6H4.65623V7.5C4.65623 7.63261 4.71495 7.75979 4.81946 7.85355C4.92397 7.94732 5.06572 8 5.21353 8C5.36133 8 5.50308 7.94732 5.60759 7.85355C5.71211 7.75979 5.77082 7.63261 5.77082 7.5V6H10.2292Z" fill="#989292"/>
</svg>
