<svg width="21" height="21" viewBox="0 0 21 21" fill="none" xmlns="http://www.w3.org/2000/svg">
<path d="M8 0C3.58764 0 0 3.58764 0 8C0 12.4124 3.58764 16 8 16C10.0267 16 11.8742 15.2382 13.2852 13.9922L19.6465 20.3535C19.7719 20.4841 19.9581 20.5367 20.1333 20.4911C20.3085 20.4454 20.4454 20.3085 20.4911 20.1333C20.5367 19.9581 20.4841 19.7719 20.3535 19.6465L13.9922 13.2852C15.2382 11.8742 16 10.0267 16 8C16 3.58764 12.4124 0 8 0ZM8 1C11.8719 1 15 4.12808 15 8C15 11.8719 11.8719 15 8 15C4.12808 15 1 11.8719 1 8C1 4.12808 4.12808 1 8 1Z" fill="#989292"/>
</svg>
