<svg width="19" height="18" viewBox="0 0 19 18" fill="none" xmlns="http://www.w3.org/2000/svg">
<path d="M18.6052 10.1832C18.6052 9.59063 18.1231 9.10848 17.5305 9.10848H15.7448V6.07113C15.7448 5.8994 15.6642 5.73766 15.5271 5.63425L8.2019 0.110336C8.00679 -0.0367786 7.73804 -0.0367786 7.54293 0.110336L0.217686 5.63425C0.0805773 5.73766 -1.52588e-05 5.8994 -1.52588e-05 6.07113V15.3715C-1.52588e-05 15.6737 0.244967 15.9187 0.54717 15.9187H9.07567V16.5951C9.07567 17.1877 9.55782 17.6699 10.1504 17.6699H17.5305C18.1231 17.6699 18.6052 17.1877 18.6052 16.5951V15.1613C18.6052 14.9695 18.5541 14.7897 18.4658 14.6337C18.5542 14.4777 18.6052 14.2979 18.6052 14.1062V12.6722C18.6052 12.4805 18.5541 12.3007 18.4658 12.1447C18.5541 11.9886 18.6052 11.8088 18.6052 11.6171V10.1832ZM10.17 15.1809H17.5108V16.5755H10.17V15.1809ZM1.09435 6.34394L7.87241 1.23269L14.6505 6.34394V9.10856H10.1504C9.55782 9.10856 9.07567 9.59063 9.07567 10.1833V11.6172C9.07567 11.809 9.1268 11.9888 9.21513 12.1448C9.1268 12.3008 9.07567 12.4806 9.07567 12.6724V14.1063C9.07567 14.2981 9.1268 14.4778 9.21513 14.6339C9.18104 14.6941 9.15267 14.7578 9.13055 14.8245H1.09435V6.34394ZM17.5108 14.0865H10.17V12.6919H17.5108V14.0865ZM17.5108 11.5975H10.17V10.2029H17.5108V11.5975Z" fill="#989292"/>
</svg>
