<svg width="19" height="19" viewBox="0 0 19 19" fill="none" xmlns="http://www.w3.org/2000/svg">
<path d="M11.7564 12.4214C11.1609 12.0855 10.0202 11.3566 8.7797 10.1144C7.53905 8.87208 6.80293 7.72142 6.46211 7.11938L8.46299 5.08985L3.41056 0L0.921493 2.47612C-0.023703 3.42265 -0.268669 4.86283 0.311893 6.05985C1.19783 7.88646 2.83248 10.6432 5.58877 13.4034C8.3451 16.1636 11.098 17.8005 12.922 18.6877C13.3542 18.8979 13.8181 19 14.279 19C15.0928 19 15.8973 18.6815 16.5007 18.0773L18.9783 15.5875L13.8236 10.417L11.7564 12.4214ZM15.4522 17.0291C14.9532 17.528 14.1967 17.6583 13.5693 17.3531C11.8475 16.5157 9.24707 14.9687 6.63637 12.3543C4.02571 9.74001 2.48081 7.13589 1.64454 5.41167C1.33965 4.78301 1.47006 4.0249 1.96736 3.52694L3.404 2.09778L6.37763 5.09345L4.67309 6.82241L4.8788 7.28498C4.91221 7.36017 5.72066 9.14921 7.73213 11.1635C9.74489 13.1791 11.5164 13.9718 11.5908 14.0046L12.0465 14.2052L13.806 12.4992L16.8859 15.5884L15.4522 17.0291ZM17.6715 3.4597C17.6014 3.18791 17.4932 2.9314 17.3538 2.69547L18.2944 1.75359L17.2468 0.70455L16.3062 1.64643C16.0636 1.50268 15.799 1.39248 15.5186 1.3225V0.010385H14.0371V1.33522C13.7748 1.4055 13.5269 1.51106 13.2984 1.64643L12.3579 0.70455L11.3102 1.75359L12.2508 2.69551C12.1114 2.93143 12.0032 3.18791 11.9331 3.45973H10.5923V4.94331H11.9331C12.0032 5.2151 12.1114 5.47161 12.2508 5.70754L11.3102 6.64946L12.3578 7.69849L13.2984 6.75661C13.5376 6.89833 13.798 7.00767 14.0741 7.07777V8.39266H15.5556V7.07124C15.8223 7.00095 16.0743 6.89403 16.3062 6.75661L17.2468 7.69849L18.2943 6.64946L17.3538 5.70757C17.4932 5.47165 17.6014 5.21514 17.6715 4.94335H19V3.45977H17.6715V3.4597ZM13.3208 4.20149C13.3208 3.88296 13.4219 3.5878 13.5932 3.3458L13.9479 2.99067C14.1895 2.81916 14.4842 2.71791 14.8023 2.71791C15.6192 2.71791 16.2838 3.38344 16.2838 4.20149C16.2838 5.01953 15.6192 5.68506 14.8023 5.68506C13.9854 5.68506 13.3208 5.01953 13.3208 4.20149Z" fill="#989292"/>
</svg>
