<svg width="18" height="18" viewBox="0 0 18 18" fill="none" xmlns="http://www.w3.org/2000/svg">
<path d="M9.02807 1.95823C8.54085 2.51105 4.00854 9.06455 3.58206 9.67994C2.31924 11.5015 1.12616 13.2226 0.99142 13.3808C0.00555046 14.3714 -0.0379371 16.0123 0.987911 17.0383C2.03314 18.0834 3.76302 18.0425 4.75225 16.908C5.85195 16.106 12.5203 11.536 15.1264 9.65201C15.548 9.42664 15.944 9.13657 16.2992 8.7815C18.2619 6.81846 18.2276 3.6344 16.2966 1.70356C14.0992 -0.493861 10.5918 -0.0367079 9.02807 1.95823ZM4.3485 16.4791C4.27251 16.5357 4.22781 16.5716 4.20934 16.5899C3.43755 17.3617 2.18191 17.3617 1.41012 16.5899C0.653591 15.8333 0.625515 14.5858 1.40234 13.809C2.1784 13.0329 3.44122 13.0329 4.21728 13.809C4.9468 14.5385 4.99044 15.6979 4.3485 16.4791ZM5.32064 15.7883C5.50924 14.9538 5.28005 14.043 4.63171 13.3947C3.96948 12.7325 3.0335 12.5071 2.18466 12.718C3.43771 10.9267 6.00469 7.19657 7.82735 4.61341C7.63708 6.09488 8.10918 7.64609 9.24474 8.7815C10.351 9.88776 11.8624 10.3738 13.3341 10.2083C10.7715 12.0151 7.12026 14.5296 5.32064 15.7883ZM9.46111 2.35328C10.3075 1.38831 11.5087 0.8541 12.772 0.8541C13.8991 0.8541 15.0266 1.28333 15.8847 2.14133C17.6006 3.85718 17.5939 6.63199 15.8823 8.34357C15.7814 8.44443 15.3904 8.73832 14.8145 9.15427C13.1543 10.0225 11.0521 9.7602 9.65917 8.36707C8.17846 6.88636 7.97521 4.60471 9.04912 2.90412C9.21544 2.67661 9.3546 2.4903 9.46111 2.35328Z" fill="#989292"/>
</svg>
